<svg xmlns="http://www.w3.org/2000/svg" version="1.1" xmlns:xlink="http://www.w3.org/1999/xlink" xmlns:svgjs="http://svgjs.dev/svgjs" width="1000" height="1125" viewBox="0 0 1000 1125"><g transform="matrix(1,0,0,1,1.7053025658242404e-13,0)"><svg viewBox="0 0 320 360" data-background-color="#ffffff" preserveAspectRatio="xMidYMid meet" height="1125" width="1000" xmlns="http://www.w3.org/2000/svg" xmlns:xlink="http://www.w3.org/1999/xlink"><g id="tight-bounds" transform="matrix(1,0,0,1,-5.684341886080802e-14,0)"><svg viewBox="0 0 320 360" height="360" width="320"><g><svg></svg></g><g><svg viewBox="0 0 320 360" height="360" width="320"><g><path xmlns="http://www.w3.org/2000/svg" d="M85.508 32.884c0-1.117 0.558-2.233 1.675-2.233 1.117 0 2.233 0.558 2.234 2.233 0.558 0 1.675 0 2.233-0.558 2.233 0 4.467-0.558 6.141 0 1.675 0.558 2.792 0.558 4.467 1.117 1.675 0.558 2.792 0 3.908-0.559 2.233-0.558 3.908-1.675 6.141-2.233 1.117-0.558 1.675-0.558 2.792-0.558 1.117-0.558 2.233-0.558 3.908-1.117 2.792-0.558 5.583-1.117 7.817-2.233 2.233-1.117 4.467-1.117 6.699-1.675 1.117 0 1.675-0.558 2.792-1.117 0.558 0 0.558-0.558 1.116-1.116 1.117-0.558 1.675-1.117 2.792-0.559 0.558 0.558 1.675 0.558 2.233 0h0.559c3.35 0 6.7-0.558 10.608 0 0.558 0 1.117 0 1.116 0 1.675-1.117 3.908-1.117 6.142-1.116 0.558 0 1.675 0 2.233 0h0.558c2.233 0 4.467 0 6.142 0.558 1.675 0 2.792 0.558 4.466 1.117 1.675 0 2.792 0 4.467 0.558 1.117 0 2.233 0 3.35 0 0.558 0 1.117 0 1.116 0 2.233 0.558 4.467 0.558 6.7 0.558 1.675 0.558 3.35 1.117 5.583 1.117 0.558 0 1.117 0 1.675 0 0.558 0 1.117 0.558 1.675 0.558l0.558 0.559c2.233 0 3.908 1.117 6.142 1.116 0.558 0 1.675 0 2.233 0.559 1.675 1.117 3.908 1.675 6.141 1.675 1.117 0 1.675 0.558 2.234 1.116 1.675 0.558 2.792 1.117 4.466 1.675 1.117 0.558 2.233 0 3.35 0.558 1.675 0.558 3.908 1.117 5.583 2.792 1.117 1.117 2.233 1.117 3.908 2.233 0.558 0 1.117 0.558 1.675 1.117 1.675 1.117 3.35 2.233 5.025 2.791 0.558 0 1.117 0.558 1.675 0.559 1.675 1.117 3.35 2.792 5.583 3.908 1.117 0.558 1.675 1.117 2.792 1.675h0.558c1.675 1.675 3.908 2.792 5.583 4.466 1.675 1.675 2.792 2.792 5.025 3.909 0 0 0 0 0 0.558 0.558 1.117 1.117 1.675 2.233 2.233 1.117 0.558 1.675 1.117 2.234 1.675 1.675 1.117 3.35 2.233 4.466 3.35 0.558 0.558 1.117 1.117 2.233 2.233 0.558 0.558 1.117 1.117 1.675 1.117 2.233 0.558 3.35 2.233 5.025 3.908 1.117 1.117 2.792 2.792 3.908 3.908 0.558 0.558 1.117 1.675 1.675 2.792 1.117 3.35 2.792 6.7 4.467 9.491 0 0 0 0.558 0.558 1.117v0.558c1.117 1.117 1.675 2.792 2.792 3.908 0.558 0.558 0.558 1.117 1.116 1.675 1.117 1.675 1.675 3.908 2.792 5.583 1.675 2.792 2.792 5.583 3.908 8.375v0.558c0.558 1.117 1.117 2.233 1.675 3.908 0 1.117 1.117 2.233 1.675 3.909 0.558 2.792 2.233 5.583 2.791 8.933 0 0.558 0.558 1.117 0.559 2.233 0.558 1.675 1.117 3.35 1.675 5.025 0 0.558 0.558 1.117 1.116 1.675 1.117 1.117 1.117 2.233 1.117 3.35-0.558 2.233 0 4.467 0.558 6.699 0 0.558 0 1.117 0 2.234 0.558 2.233 1.117 5.025 1.117 7.258 0 0.558 0 1.675 0 2.233 0 1.675 0.558 3.35 1.675 5.025 0 0.558 0.558 0.558 0.558 0.558 0.558 0.558 1.117 1.675 1.675 2.233 0.558 0.558 0.558 0.558 1.117 1.117 1.117 1.117 1.675 2.233 1.675 3.908 0 0.558-0.558 1.675-0.559 2.233 0 0.558 0 1.675 0.559 2.234 0.558 0.558 0.558 1.117 0.558 1.675 0 0.558-0.558 1.117-1.117 1.116v0c-0.558 1.675-2.792 2.233-3.35 3.908-0.558 2.233-1.117 4.467-1.674 6.7-0.558 1.675-0.558 2.792-0.559 4.467 0 1.675-0.558 2.792-0.558 4.466-0.558 2.233-1.117 4.467-1.675 6.7 0 1.117-0.558 2.233-0.558 3.35 0.558 0.558 1.117 1.117 1.675 1.116 1.117 1.117 2.233 2.233 3.349 3.35 0.558 0.558 0.558 1.117 0 1.117-0.558 0.558-1.117 0.558-1.674 0.558-0.558-0.558-1.675-1.117-2.234-1.116-0.558-0.558-1.675-1.117-2.791-0.559 0 1.117-0.558 2.233-0.559 2.792-0.558 1.117-1.117 2.792-1.116 3.908-0.558 2.233-1.675 3.908-2.233 6.142-1.117 2.792-2.233 5.025-3.35 7.258-0.558 1.117-1.117 2.233-1.675 3.35v0c0 1.675-1.675 3.35-2.234 5.024-1.117 2.233-2.233 4.467-3.349 7.258-0.558 1.117-1.117 2.233-1.675 2.792-1.117 2.792-2.233 5.025-3.909 7.258-1.117 1.675-2.233 2.792-3.349 3.35-1.117 1.117-2.233 2.233-3.35 3.35-0.558 0.558-1.117 1.117-1.675 1.675-0.558 0.558-0.558 0.558-1.117 1.116-1.117 1.675-2.792 2.792-3.908 4.467-1.117 1.117-1.675 2.233-3.35 3.35-1.117 1.117-2.233 2.792-3.908 3.35-0.558 0.558-1.117 1.675-1.675 2.233-0.558 0.558-1.117 1.675-1.675 2.233 0 1.117 0.558 2.233 0.558 2.792 0 1.675-1.675 2.233-2.791 1.116-1.675-1.117-1.675-1.117-3.35 0-1.675 1.117-3.35 2.792-5.583 3.35-0.558 0-0.558 0.558-1.117 0.559-1.117 0.558-1.675 1.675-2.792 2.233-1.117 1.117-2.792 1.675-3.908 2.791-0.558 0.558-1.117 0.558-1.675 1.117-1.675 1.117-3.35 1.675-5.024 3.35-0.558 0.558-1.117 0.558-1.675 1.117 0 0.558 0 0.558 0 1.116 0 1.117-1.117 2.233-2.792 1.675-1.675-0.558-2.792 0-4.466 0-1.675 0.558-3.35 1.675-5.025 2.233-0.558 0-1.117 0.558-1.675 1.117-1.675 1.117-3.35 1.675-5.025 2.233-1.117 0-2.233 1.117-3.35 1.117-0.558 0-1.117 0.558-1.675 0.558h-0.558c-2.233 1.675-4.467 2.792-6.7 4.467-0.558 0-0.558 0.558-1.117 1.116-0.558 1.117-1.117 1.675-2.233 1.675-2.792 0-3.908 2.233-3.35 4.467 0 0.558 0.558 1.117 0.559 1.675 0.558 1.117 0 2.233-0.559 2.791-0.558 0.558-2.233 0.558-2.791-0.558-1.117-1.117-1.675-2.233-2.234-3.908-0.558-1.117-1.675-2.233-2.791-2.792-1.117-0.558-2.233-0.558-3.35 0-0.558 0-0.558 0.558-1.117 0.558-1.117 1.117-2.792 1.675-4.466 1.117-0.558 0-1.675 0-1.675 0.558-0.558 0.558-0.558 1.675 0 2.234 1.117 1.117 0.558 2.233 0.558 3.908 0 2.233-1.675 3.35-3.908 2.233-0.558-0.558-1.117-0.558-1.675-1.117-0.558 0-0.558-0.558-0.558-1.116-0.558-0.558-0.558-1.675-1.117-2.792-1.117 0.558-2.233 0.558-3.35 1.117-0.558 0-1.117 0.558-1.675 0.558-1.675 0-2.233 0-2.791-1.675-0.558-1.675-1.675-1.675-2.792-2.233-2.233-0.558-5.025-0.558-7.258-1.675h-0.558c-2.233-1.675-4.467-1.675-7.258-1.675-1.675 0-3.35 0.558-5.025 0.558-1.675 0-2.792 0.558-3.908 1.675-0.558 0.558-1.117 1.117-1.675 1.117-0.558-0.558-0.558-1.117-1.117-1.675v-0.558c0-0.558-0.558-1.117-1.116-0.559-1.117 0.558-2.233-0.558-3.35-1.116-0.558-0.558-1.675-1.675-1.675-2.792-0.558-0.558-1.117-1.117-1.675-1.116-1.117 0-2.792-0.558-3.908-0.559-0.558 0-1.117 0-1.117-0.558-0.558-0.558-1.117-0.558-2.233-0.558-0.558 0-0.558-0.558-1.117-0.559 1.117 1.117 1.675 2.233 2.233 3.35 0 0.558 0.558 0.558 0.559 1.117 0.558 1.117 0 1.675-1.675 1.675-1.117 0-1.117 0-1.675 0.558 0 1.117 0 1.675 0 2.792 0 0.558 0 1.117-1.117 1.675 0 0-0.558 0-0.558 0.558-0.558 0.558-0.558 1.117 0 1.675 1.675 1.117 2.792 1.675 4.466 2.233 1.675 0 1.675 1.117 2.234 2.233 0.558 1.117 0 1.675-0.559 2.792-1.117 1.117-2.233 2.233-3.35 3.35-1.675 0.558-2.792 2.233-4.466 2.233-1.117 0-2.233-0.558-2.792-1.675-0.558-2.792-0.558-5.025 0.559-7.816 0-0.558 0.558-1.117 0-1.675-5.025 0-5.025-1.117-5.025-1.675 0-1.117 0.558-1.675 0.558-2.792 0.558-1.117 0-1.675-1.675-2.233-0.558 0-1.117 0-1.675 0-0.558 0-0.558-0.558-1.675-0.558 1.117-0.558 1.675-0.558 2.792-1.117-0.558-2.233-1.117-3.908-2.792-5.025-0.558-0.558-1.117-1.117-1.116-2.233 0-1.675-1.117-2.792-1.675-3.908-1.117-1.675-3.35-2.233-5.025-2.233-1.675-0.558-2.792-0.558-4.467-1.117-1.675-0.558-3.35-2.233-5.024-2.792-0.558-0.558-1.117-1.117-2.234-1.674-2.233-1.117-3.908-2.792-5.583-4.467-1.117-0.558-1.675-1.675-2.791-2.233-1.117-1.117-1.675-2.233-2.792-2.792-1.117-1.117-2.233-2.233-3.908-3.35-1.675-1.117-2.792-2.792-4.467-4.466-1.117-1.675-2.792-2.792-4.466-3.908-0.558 0-1.117 0-1.675 0-0.558 0-1.117 0.558-1.675 0.558-1.675 0.558-2.792 1.675-4.467 2.233 0.558-0.558 0.558-0.558 0-1.675-0.558-0.558-1.117-1.117-1.674-1.116-1.117 0-2.233 0-3.35 0-2.233 0-4.467 0.558-6.7 0.558-1.675 0-3.908 0.558-5.583 1.117 0.558 1.117 0.558 1.675 1.116 2.791-1.117 0.558-2.233 0.558-3.35 0.558-0.558 0-1.675 0.558-2.233 1.117-0.558 0-0.558 0.558-1.116 0-1.117-0.558-2.233 0-3.35 0.558h-0.559c0 0 0-0.558 0.559-0.558 0.558-0.558 1.117-1.117 1.675-1.675 0.558-0.558 1.117-0.558 2.233-1.117-0.558-0.558-0.558-1.117-0.558-1.116-0.558-0.558-1.117-0.558-1.675 0-0.558 0.558-1.117 1.117-1.675 1.675-0.558 0.558-1.117 0.558-1.675 0-0.558-0.558-0.558-1.117 0-1.675 0-0.558 0.558-1.117 1.116-1.675 0.558-0.558 0.558-1.117 1.117-1.675-1.117-1.117-1.675-2.233-2.792-2.792-1.675-1.117-3.35-2.792-4.466-4.466-1.117-2.233-2.792-3.908-5.025-5.025-0.558-0.558-1.117-1.117-1.675-1.675-0.558-0.558-0.558-0.558-1.116-1.117-1.675 0.558-2.792 1.675-4.467 2.234-0.558 0-0.558 0.558-1.117 1.116-0.558 1.117-1.675 1.117-2.791 1.117-0.558 0-1.117-0.558-0.558-1.117 0.558-1.117 1.117-2.233 2.791-1.675 0 0 0.558 0 0.558-0.558 1.117-1.117 2.233-2.792 3.909-3.908-0.558-1.675-1.675-2.792-2.234-3.908-0.558-0.558-0.558-1.117-0.558-2.234 0-0.558 0-0.558-0.558-1.116 0 0-0.558 0-1.117 0.558-0.558 0.558-1.675 1.117-2.791 0 0-0.558 0-1.117 0.558-1.675l0.558-0.558c1.675-0.558 1.675-2.233 1.675-3.908v-0.559c-0.558-1.117-0.558-1.675 0.558-2.791 1.675-1.117 3.35-3.35 3.909-5.025 0.558-1.117 1.675-1.675 2.791-2.792 1.117-1.117 2.233-2.233 2.792-3.908h0.558c2.233 0.558 2.792-1.117 3.908-2.791 0-0.558 0-1.117 0.559-1.117 1.117-1.117 1.117-2.233 0.558-3.908 0-0.558-0.558-1.675-0.558-2.233 0-0.558 0-0.558-0.559-1.117-1.675-1.117-1.675-2.233 0-3.35 1.117-0.558 1.117-1.675 1.675-2.233 0.558-1.117 0.558-2.233 0.559-3.908-0.558-1.675-0.558-3.908-1.117-5.583-0.558-2.233-1.117-5.025-1.675-7.259 0-0.558 0-0.558 0-1.116 0-1.675 0-2.792-0.558-4.467-0.558-0.558-0.558-1.675-0.559-2.233-0.558-1.675-1.117-2.792-2.791-3.35-1.675-1.117-3.908-1.675-5.583-2.791-0.558-0.558-1.117 0-1.675 0.558-0.558 1.117-1.675 2.233-2.234 3.35-0.558 0.558-1.117 1.675-1.675 2.791-1.117 1.117-3.35 2.233-5.024 0.559-0.558-1.117-1.117-1.675 0-2.792 1.117-1.675 2.233-3.35 3.908-4.466 0.558-0.558 1.117-1.675 1.675-2.234 0.558-1.117 0.558-2.233 0.558-3.35-0.558-2.233-1.117-4.467-1.117-7.258 0-2.792 0-5.025 0.559-7.816 0.558-1.117 0.558-2.792 1.116-3.908 0-0.558 0.558-1.675 1.117-2.233 1.117-1.117 2.233-2.233 2.792-3.909 0.558-1.675 1.675-3.35 1.675-5.024 0-0.558 0.558-1.117 0.558-1.675 0-0.558 0.558-1.675 0.558-2.234-0.558-1.675 0-2.792 0.558-3.908 0.558-1.117 1.117-2.792 1.675-3.908 1.117-2.233 1.117-5.025 3.35-7.258 0.558-1.117 1.117-2.233 1.675-3.35 0.558-2.233 1.675-3.908 2.792-5.583 0.558-0.558 0.558-0.558 0.558-1.117 0.558-1.675 1.675-3.35 2.792-5.025 1.117-1.675 1.117-3.35 1.675-5.024 0-0.558 0-1.117 0.558-1.675 1.675-1.675 1.117-3.908 0.558-6.142-1.117-2.792-1.675-5.583-1.116-8.374 0-0.558 0-1.117 0.558-1.117 0.558-1.117 0.558-1.675 1.117-2.792v-0.558c1.117-1.117 2.233-2.792 3.908-3.35 2.233-1.117 4.467-1.675 7.258-2.233 2.233 0 4.467-1.117 6.141-3.35 0-0.558 0.558-0.558 1.117-1.117l0.558-0.558c0.558-1.117 1.117-1.675 1.675-2.233 1.117-1.117 2.233-2.792 3.35-3.908 1.117-1.117 2.233-2.792 3.908-4.467l0.559-0.558c1.117-1.117 2.233-2.233 3.349-2.792 1.117-1.117 2.233-2.233 3.35-3.35 1.117-1.117 1.675-2.233 2.792-3.35 1.117-0.558 2.233-1.675 3.35-2.791 1.117-1.117 2.233-2.233 2.791-2.792 1.117-1.117 2.792-2.233 3.909-2.791 1.117-0.558 2.233-1.117 2.791-2.792 0.558-1.675 1.117-2.792 1.675-4.466 0-1.117 0.558-2.233 1.117-3.35 0.558 0 1.117 0 2.233-0.558-0.558-0.558-1.117-0.558-1.117-1.117 0-0.558 0.558-1.117 0.559-1.117 0-0.558 0.558-1.117 0.558-1.675 0 0 0.558 0 0.558-0.558 0 0 0.558 0 0.559-0.558-1.117 0.558-1.675 0-2.234-0.559 0.558 0.558 1.117 0.558 2.234 1.117 0 0 0.558 0 0.558-0.558 0-0.558 0-1.117 0-1.117 0 0-0.558 0-1.117 0-0.558 0-1.117 0.558-1.675 0.558zM182.097 295.292c0-0.558-0.558-0.558-0.559-1.117-0.558-1.117 0-1.675 0.559-2.233 0.558-0.558 1.117-0.558 2.233-0.558 1.117 0.558 1.675 1.117 1.675 2.233 0 0.558 0 1.675 0 2.233 0.558 2.233 0.558 2.233 2.791 2.233 1.117 0 2.233 0 3.35 0 2.233-0.558 4.467-1.675 6.7-2.233 2.233-0.558 4.467-1.117 6.7-1.675 0.558 0 1.117 0 2.233 0 2.233 0.558 3.908 0 5.583-1.117 0.558-0.558 1.675-0.558 2.233-1.116 1.117-0.558 2.233-0.558 3.35-1.117 2.792-1.675 5.583-2.792 7.817-4.466 1.675-1.117 3.35-2.233 5.024-3.35 1.675-1.117 3.35-2.233 5.025-3.35 1.117-0.558 2.792-1.675 3.908-2.792 2.233-1.675 3.908-3.35 6.142-4.466 1.117-0.558 1.675-1.117 2.233-1.675 1.117-0.558 1.675-1.675 2.792-2.233 0.558-0.558 1.117-1.117 2.233-1.675 0.558-0.558 0.558-0.558 0.558-1.117 1.675-1.117 3.35-3.35 4.467-5.025 1.117-1.117 2.233-2.233 3.35-3.908 1.675-1.675 2.792-3.908 4.466-6.141 1.117-1.117 2.233-2.792 2.792-3.909 1.117-2.233 2.233-4.467 3.908-6.141v-0.558c1.117-2.233 2.233-4.467 3.35-6.7 1.675-2.792 2.792-6.141 4.466-8.933 0.558-1.117 1.117-2.233 1.117-3.35 1.117-2.233 1.675-4.467 2.233-6.7 0-0.558 0-0.558 0.559-1.116 1.675-3.35 2.792-6.7 3.349-10.608 0.558-2.233 1.117-4.467 1.675-6.7 1.117-3.35 1.117-6.141 1.675-9.491 0.558-2.233 0.558-5.025 0.559-7.258 0.558-3.35 0.558-7.258 0-10.608 0-2.792-0.558-6.141-0.559-8.933 0-2.792-0.558-5.025-1.116-7.817-0.558-2.792-1.117-5.025-1.675-7.816-1.117-2.233-1.675-4.467-2.234-7.258-0.558-2.233-1.675-3.908-1.674-6.142 0-1.675-0.558-3.35-2.234-3.908-1.675-0.558-2.792-1.117-4.466-2.233-3.35-2.233-5.025-5.025-4.467-8.375 0-1.675 0.558-3.908 1.117-5.583 0.558-1.675 1.117-3.35 0-4.467-0.558-1.675-1.675-2.792-2.233-3.908-1.117-1.675-1.675-2.792-2.792-3.908-1.117-2.233-2.233-4.467-3.908-6.141-2.233-2.792-3.908-5.583-6.7-7.817l-0.558-0.558c-1.675-2.233-3.35-4.467-5.583-6.142-1.117-1.117-2.233-2.233-3.35-2.791-0.558-0.558-1.117-1.117-2.233-1.675-1.675-1.117-3.35-1.675-4.467-2.792-1.675-1.675-3.908-2.792-5.583-3.908 0 0-0.558 0-0.558-0.558-2.233-1.117-3.908-1.675-6.142-2.792-2.233-1.117-4.467-1.675-6.7-1.675-0.558 0-0.558 0-1.116 0-0.558-0.558-1.675-0.558-2.233-0.558-0.558 0-0.558 0-1.117 0-1.117-0.558-2.792 0-3.908 0-2.233 0.558-4.467 0.558-6.7-0.558-2.792-1.117-5.025-2.233-7.258-3.35-1.675-1.117-2.792-2.233-4.467-3.35-3.35-2.792-6.7-6.141-10.608-8.933 0.558-2.792-0.558-3.35-2.791-3.35-1.117 0-2.233 0.558-3.35 1.117-0.558 0.558-0.558 0.558-1.117 1.116-1.675 1.117-2.792 2.792-4.466 3.909-2.792 1.675-3.908 1.117-6.142 0-0.558-0.558-1.117-1.117-1.675-1.675-1.117-1.117-2.233-2.792-2.791-3.909-1.117-2.233-3.35-2.233-5.583-2.233-1.117 0-2.792 0.558-3.908 0.558-2.233 0-4.467 1.117-5.584 2.792-1.117 1.675-2.233 3.35-3.908 5.025-0.558 0.558-1.675 1.117-2.233 2.233-1.117 1.117-2.233 1.117-3.35 0-0.558-0.558-1.117-0.558-1.675-1.117-0.558 0.558-1.117 1.117-1.117 1.675-0.558 1.117-1.117 2.233-1.674 3.909-0.558 1.675-1.675 3.35-2.792 4.466-0.558 0.558-0.558 0.558-1.117 1.117-0.558 1.117-2.233 1.675-3.35 1.675-1.117 1.117-2.233 2.792-2.791 3.908-0.558 1.117-1.117 2.233-1.675 3.908-0.558 0.558-0.558 1.675-1.117 2.233-0.558 1.117-0.558 1.675-0.558 2.792 0.558 1.675-0.558 2.233-2.233 2.791-1.117 0-1.117 0-1.675 1.117 0 1.675 0.558 2.792 1.116 4.467 0.558 0.558 1.117 1.675 1.117 2.233 0 1.117 0.558 1.675 1.675 2.233 0.558 0.558 1.117 1.117 1.675 1.117 0.558 0 0.558 0.558 1.117 0.558 0.558 0.558 1.117 0 1.116-0.558 0.558-1.675 1.117-3.35 1.117-5.025 0.558-2.233 0.558-3.908 1.116-6.142 0.558-1.117 1.117-1.675 1.675-2.233 0 0 0.558 0 1.117 0v0.559c-0.558 2.792-1.675 6.141-2.233 8.933-0.558 1.117-0.558 2.233-1.117 3.349 0 0.558-0.558 1.117-1.116 1.117-1.117 0.558-2.233 1.117-3.35 1.117-0.558 0-1.117 0-1.675 0-1.117-0.558-2.233-1.675-3.35-2.234-0.558-0.558-1.117-1.117-1.675-1.674-0.558-1.117-1.117-2.233-1.675-3.35-0.558-1.117-1.117-1.675-2.233-2.234-0.558-0.558-1.117-0.558-1.675-1.116-1.117-1.117-2.233-1.675-3.908-1.675-0.558 0-1.675 0-2.234 0-0.558 0-1.675 0.558-2.233 1.116-1.117 0.558-1.675 0.558-2.791 0-2.792-1.117-5.583-0.558-8.375 0.559-1.117 0.558-2.233 1.117-3.35 1.116-2.792 0-5.025 0-7.816 0-2.792 0-5.025-0.558-7.817-1.116-1.117 0-2.233 0-3.35 0-2.233 0.558-2.792 2.233-2.233 4.466 0.558 2.233 1.117 5.025 1.117 7.258 0 1.675 0 3.35 0 5.025 0 1.117 0 1.675 0 2.792 0 1.675-0.558 3.35-0.559 5.025-0.558 3.35-2.233 6.141-4.466 8.374-1.675 1.675-3.908 3.35-6.142 3.908-1.117 0.558-2.233 1.117-3.908 1.675-2.792 1.117-5.025 3.35-6.7 6.142-0.558 1.117-1.117 2.233-1.674 3.35-1.117 1.675-1.675 2.792-2.792 4.466-0.558 1.117-1.675 2.233-2.233 3.35-0.558 1.117-1.675 1.675-1.675 2.792-1.117 2.233-1.675 4.467-2.792 6.699-0.558 1.117-0.558 2.792-1.116 3.909-1.117 2.233-1.117 4.467-1.117 7.258 0 0.558 0 1.117 0 2.233 0 2.792-0.558 6.141-0.558 8.933 0 2.792 0 5.583 0.558 8.375 0 1.117 0 2.792 0 3.908 0 2.233 0.558 5.025 0.558 7.258 0 2.233 0 5.025 1.117 7.258v0.558c0.558 2.233 0.558 4.467 1.116 6.7 0 0.558 0 1.117 0.559 1.675 1.117 3.35 1.675 6.141 2.791 9.491 0.558 2.233 1.675 4.467 2.234 6.7 0.558 2.233 2.792 4.467 3.349 7.258v0c1.675 3.35 3.35 6.7 5.584 10.05 0.558 1.117 1.675 2.233 2.233 3.35 1.117 1.675 1.675 3.35 2.791 4.466 0.558 1.117 1.675 2.233 2.234 2.792 0.558 1.117 1.117 2.233 2.233 3.35 1.117 1.117 2.233 2.792 3.35 3.908 1.675 2.792 3.908 5.025 6.141 6.7 1.117 1.117 2.233 1.675 3.35 2.791 0.558 0.558 1.117 0.558 1.117 1.117 0.558 0.558 1.117 1.117 2.233 1.675 4.467 2.233 7.816 5.583 11.725 8.933 1.675 1.675 3.35 3.35 5.583 4.466 2.233 1.675 3.908 3.35 6.7 3.908 0 0 0.558 0 0.558 0.559 1.117 1.117 2.792 1.675 3.908 2.233 2.233 1.117 5.025 2.233 7.258 3.35 0.558 0.558 1.675 0.558 2.233 1.117 1.675 0.558 3.35 1.117 5.025 1.674 1.675 0.558 2.792 1.117 4.467 1.117h0.558c1.117 0.558 1.675 0.558 2.792 0 0.558 0 1.117 0 1.116 0.558 0 0.558 0.558 0.558 1.117 0.559 0.558 0 1.117 0 2.233 0 0.558-0.558 0.558-1.117 1.117-2.234 0.558 0.558 1.117 0.558 1.116 0.559 0.558 1.117 1.675 1.117 2.792 1.116h0.558c1.117 0 1.675 0 2.233-0.558 0-0.558 1.117-0.558 1.675-0.558 1.675 0.558 3.35 0.558 5.025 1.116 1.117 0.558 2.792 0.558 3.35-0.558 0.558-0.558 1.117-1.117 2.233-0.558 1.117 0.558 1.675 0.558 2.792 0 0.558 0 1.117 0 1.117 0 1.675 0.558 2.792 0.558 4.466 1.116 2.233 0.558 2.233 0.558 3.908-1.116 0.558-0.558 1.675-0.558 2.233 0 0.558 1.117 0.558 1.675 0.559 2.791 0.558 0 0.558 0 1.116-0.558 0-1.117 0.558-1.117 1.675-1.675 0.558 0.558 0.558 0.558 1.117 0.558 1.117 1.117 1.675 1.117 2.233-0.558 0-0.558 0-1.117 0.559-1.116 0.558 0 1.117 0.558 1.116 0.558 0.558 1.117 1.675 1.675 2.233 2.791 1.117 1.117 2.792 1.117 3.35 0 0.558-0.558 1.117-0.558 1.675-0.558 0-0.558 0-1.117 0-1.675 1.675 1.117 1.117 1.117 0.559 1.117zM89.417 34.559c1.675 0.558 2.792 0.558 3.349-0.558-1.117 0.558-2.233-0.558-3.349 0.558z" fill="#ff0000" fill-rule="nonzero" stroke="none" stroke-width="1" stroke-linecap="butt" stroke-linejoin="miter" stroke-miterlimit="10" stroke-dasharray="" stroke-dashoffset="0" font-family="none" font-weight="none" font-size="none" text-anchor="none" style="mix-blend-mode: normal" data-fill-palette-color="tertiary"></path></g><g transform="matrix(1,0,0,1,64,121.22448979591837)"><svg viewBox="0 0 192 117.55102040816325" height="117.55102040816325" width="192"><g><svg viewBox="0 0 192 117.55102040816325" height="117.55102040816325" width="192"><g><svg viewBox="0 0 192 117.55102040816325" height="117.55102040816325" width="192"><g><svg viewBox="0 0 192 117.55102040816325" height="117.55102040816325" width="192"><g><svg viewBox="0 0 192 117.55102040816325" height="117.55102040816325" width="192"><g><svg viewBox="0 0 192 117.55102040816325" height="117.55102040816325" width="192"><g transform="matrix(1,0,0,1,0,0)"><svg width="192" viewBox="2.25 -36.90999984741211 62.19999694824219 38.08000183105469" height="117.55102040816325" data-palette-color="#ff0000"><path d="M36.91-0.15L36.91-0.15Q36.67 0.1 36.38 0.15 36.08 0.2 35.79 0.2L35.79 0.2Q35.06 0.54 34.23 0.54L34.23 0.54Q33.69 0.24 33.64 0.34 33.59 0.44 33.45 0.54L33.45 0.54Q32.71 0.88 32.13 0.9 31.54 0.93 31.15 1.17L31.15 1.17Q30.76 0.88 30.74 0.32 30.71-0.24 30.62-0.63L30.62-0.63Q30.37-0.98 30.27-1.49 30.18-2 30.13-2.54 30.08-3.08 30-3.59 29.93-4.1 29.74-4.49L29.74-4.49Q29.69-4.74 29.71-4.93 29.74-5.13 29.64-5.37L29.64-5.37Q29.69-6.2 29.59-6.69 29.49-7.18 29.39-7.71L29.39-7.71Q29.35-8.01 29.35-8.37 29.35-8.74 29.05-8.94L29.05-8.94Q29.2-9.62 29.1-9.96 29-10.3 28.96-10.6L28.96-10.6Q28.91-10.99 28.91-11.45 28.91-11.91 28.81-12.3L28.81-12.3Q28.52-14.65 28.17-16.99 27.83-19.34 27.54-21.68L27.54-21.68Q27.25-21.44 27.12-20.95 27-20.46 26.9-20.07L26.9-20.07Q26.61-19.19 26.37-18.26 26.12-17.33 25.88-16.46L25.88-16.46Q25.78-16.06 25.71-15.55 25.63-15.04 25.49-14.65L25.49-14.65Q25-13.23 24.63-12.21 24.27-11.18 23.93-10.11L23.93-10.11Q23.83-9.52 23.73-8.98 23.63-8.45 23.54-7.91L23.54-7.91Q23.49-7.62 23.39-7.08 23.29-6.54 23.19-6.3L23.19-6.3Q23.1-6.05 23.02-5.96 22.95-5.86 23-5.62L23-5.62Q22.51-4.88 22.34-4 22.17-3.13 21.73-2.29L21.73-2.29Q21.73-1.71 21.29-1.27L21.29-1.27Q21.04-1.22 20.83-1.17 20.61-1.12 20.36-0.98L20.36-0.98Q20.12-1.07 19.8-1.1 19.48-1.12 19.19-1.12L19.19-1.12Q18.95-1.17 18.75-1.29 18.55-1.42 18.31-1.46L18.31-1.46Q18.07-1.76 17.77-1.98 17.48-2.2 17.19-2.44L17.19-2.44Q16.89-3.17 16.65-3.42L16.65-3.42Q16.5-3.96 16.26-4.42 16.02-4.88 15.92-5.47L15.92-5.47Q15.77-6.01 15.55-6.47 15.33-6.93 15.09-7.47L15.09-7.47Q14.99-7.81 14.87-8.13 14.75-8.45 14.6-8.79L14.6-8.79Q14.55-9.18 14.33-9.77 14.11-10.35 14.01-10.79L14.01-10.79Q14.01-10.84 13.84-11.3 13.67-11.77 13.5-12.3 13.33-12.84 13.16-13.28 12.99-13.72 12.94-13.77L12.94-13.77Q12.84-14.01 12.77-14.23 12.7-14.45 12.6-14.75L12.6-14.75Q12.4-15.38 12.11-16.04 11.82-16.7 11.52-17.29L11.52-17.29Q11.28-17.77 11.18-18.24 11.08-18.7 10.94-19.14L10.94-19.14Q10.84-19.38 10.77-19.58 10.69-19.78 10.6-20.02L10.6-20.02Q10.5-20.31 10.4-20.63 10.3-20.95 10.21-21.29L10.21-21.29Q9.96-21.19 9.99-20.87 10.01-20.56 9.96-20.31L9.96-20.31Q9.86-19.78 9.86-19.26 9.86-18.75 9.81-18.21L9.81-18.21Q9.72-17.63 9.62-17.09 9.52-16.55 9.47-16.02L9.47-16.02Q9.47-14.7 9.33-13.38L9.33-13.38Q9.23-12.21 9.08-11.01 8.94-9.81 8.89-8.54L8.89-8.54Q8.89-7.62 8.69-6.71 8.5-5.81 8.59-4.83L8.59-4.83Q8.5-4.64 8.5-4.54 8.5-4.44 8.5-4.25L8.5-4.25Q8.5-4 8.47-3.71 8.45-3.42 8.45-3.17L8.45-3.17Q8.45-2.73 8.54-2.59L8.54-2.59Q8.4-2.15 8.4-1.64 8.4-1.12 8.4-0.63L8.4-0.63Q8.3-0.44 8.28-0.24 8.25-0.05 8.11 0.15L8.11 0.15Q8.15 0.98 7.62 0.98L7.62 0.98Q7.47 0.98 7.3 0.9 7.13 0.83 7.03 0.68L7.03 0.68Q6.49 0.73 6.42 0.44 6.35 0.15 6.1 0.2L6.1 0.2Q5.52 0.44 5.44 0.34 5.37 0.24 5.13 0.29L5.13 0.29Q4.74-0.1 4.61-0.05 4.49 0 4.39 0L4.39 0Q3.96-0.15 3.91-0.07 3.86 0 3.71 0L3.71 0Q3.47-0.24 3.05-0.24 2.64-0.24 2.34-0.29L2.34-0.29Q2.29-0.49 2.27-0.66 2.25-0.83 2.25-1.07L2.25-1.07Q2.25-1.37 2.27-1.64 2.29-1.9 2.29-2.2L2.29-2.2Q2.29-2.44 2.27-2.71 2.25-2.98 2.25-3.32L2.25-3.32Q2.25-3.66 2.29-3.98 2.34-4.3 2.34-4.69L2.34-4.69Q2.34-4.83 2.29-4.96 2.25-5.08 2.25-5.27L2.25-5.27Q2.54-5.91 2.51-6.27 2.49-6.64 2.54-6.98L2.54-6.98Q2.64-7.81 2.71-8.62 2.78-9.42 2.88-10.25L2.88-10.25Q2.88-11.62 2.95-12.52 3.03-13.43 3.17-14.36L3.17-14.36Q3.27-14.79 3.34-15.19 3.42-15.58 3.52-16.02L3.52-16.02Q3.61-16.75 3.64-17.55 3.66-18.36 3.76-19.14L3.76-19.14Q3.86-20.36 4-21.56 4.15-22.75 4.25-23.93L4.25-23.93Q4.35-24.85 4.47-25.76 4.59-26.66 4.59-27.49L4.59-27.49Q4.59-27.93 4.71-28.61 4.83-29.3 4.88-29.79L4.88-29.79Q4.98-30.96 5.05-32.08 5.13-33.2 5.13-34.33L5.13-34.33 5.13-34.86Q5.13-34.96 5.22-35.06 5.32-35.16 5.32-35.4L5.32-35.4Q5.32-35.84 5.54-36.01 5.76-36.18 5.91-36.57L5.91-36.57Q6.15-36.57 6.47-36.52 6.79-36.47 6.93-36.23L6.93-36.23Q7.28-36.33 7.62-36.33 7.96-36.33 8.2-36.57L8.2-36.57Q8.5-36.57 8.64-36.43 8.79-36.28 9.03-36.18L9.03-36.18Q9.23-36.28 9.42-36.35 9.62-36.43 9.81-36.52L9.81-36.52Q9.96-36.43 10.03-36.3 10.11-36.18 10.25-36.13L10.25-36.13Q10.99-36.33 11.23-36.18L11.23-36.18Q11.33-35.99 11.35-35.79 11.38-35.6 11.43-35.4L11.43-35.4Q11.91-34.91 12.06-34.3 12.21-33.69 12.6-33.2L12.6-33.2Q12.7-32.91 12.82-32.62 12.94-32.32 13.04-31.93L13.04-31.93 13.18-31.35Q13.38-30.86 13.67-30.18L13.67-30.18Q13.92-29.25 14.11-28.27 14.31-27.29 14.75-26.46L14.75-26.46Q14.79-26.17 14.92-25.76 15.04-25.34 15.14-25.05L15.14-25.05Q15.48-24.22 15.84-23.41 16.21-22.61 16.5-21.68L16.5-21.68Q16.8-20.75 17.02-19.78 17.24-18.8 17.58-17.87L17.58-17.87Q17.87-16.99 18.02-16.6 18.16-16.21 18.41-15.82L18.41-15.82Q18.41-15.67 18.48-15.33 18.55-14.99 18.7-14.62 18.85-14.26 18.99-13.94 19.14-13.62 19.29-13.57L19.29-13.57Q19.43-13.67 19.46-13.87 19.48-14.06 19.63-14.21L19.63-14.21Q19.68-14.75 19.8-15.53 19.92-16.31 20.17-16.8L20.17-16.8Q20.17-17.04 20.29-17.7 20.41-18.36 20.61-19.12 20.8-19.87 20.97-20.51 21.14-21.14 21.29-21.29L21.29-21.29Q21.39-21.92 21.46-22.07 21.53-22.22 21.63-22.31L21.63-22.31Q21.68-22.71 21.83-23.05 21.97-23.39 22.02-23.78L22.02-23.78Q22.12-24.61 22.27-25.15 22.41-25.68 22.66-26.46L22.66-26.46Q22.85-27.15 23.02-27.86 23.19-28.56 23.44-29.25L23.44-29.25Q24.02-31.1 24.49-32.54 24.95-33.98 25.63-35.35L25.63-35.35Q25.78-35.79 25.88-35.89 25.98-35.99 26.07-36.08L26.07-36.08Q26.46-36.23 26.88-36.23 27.29-36.23 27.73-36.18L27.73-36.18Q28.22-36.38 28.47-36.62L28.47-36.62Q28.66-36.38 29.05-36.38L29.05-36.38Q29.54-36.38 29.74-36.67L29.74-36.67Q29.93-36.57 30.05-36.62 30.18-36.67 30.42-36.57L30.42-36.57Q30.52-36.67 30.66-36.79 30.81-36.91 30.96-36.91L30.96-36.91Q31.35-36.43 31.57-36.16 31.79-35.89 31.88-35.55L31.88-35.55Q32.03-35.11 32.06-34.59 32.08-34.08 32.32-33.64L32.32-33.64Q32.28-33.01 32.4-31.71 32.52-30.42 32.69-28.98 32.86-27.54 33.06-26.32 33.25-25.1 33.4-24.8L33.4-24.8Q33.35-24.17 33.45-23.73 33.54-23.29 33.54-22.85L33.54-22.85Q33.54-22.71 33.59-22.24 33.64-21.78 33.69-21.26 33.74-20.75 33.81-20.29 33.89-19.82 33.94-19.63L33.94-19.63Q33.94-18.75 34.23-18.26L34.23-18.26Q34.47-17.04 34.64-15.82 34.81-14.6 34.96-13.33L34.96-13.33Q35.06-12.7 35.08-12.11 35.11-11.52 35.21-10.89L35.21-10.89Q35.25-10.64 35.33-10.4 35.4-10.16 35.45-9.91L35.45-9.91Q35.55-9.42 35.6-8.98 35.64-8.54 35.74-8.11L35.74-8.11Q35.79-7.86 35.89-7.59 35.99-7.32 35.89-7.03L35.89-7.03Q35.99-6.69 35.96-6.3 35.94-5.91 36.13-5.62L36.13-5.62Q36.13-4.59 36.28-3.81L36.28-3.81Q36.33-3.22 36.57-2.64L36.57-2.64Q36.67-2.05 36.74-1.42 36.82-0.78 36.91-0.15ZM61.72-36.28L62.2-36.13Q62.79-36.28 63.03-36.25 63.28-36.23 63.52-36.18L63.52-36.18Q63.82-35.99 64.01-35.69L64.01-35.69Q64.01-34.67 63.99-33.67 63.96-32.67 63.96-31.64L63.96-31.64Q63.96-29.79 64.01-27.93 64.06-26.07 64.01-24.22L64.01-24.22Q64.11-23.78 64.06-23.73 64.01-23.68 64.01-23.58L64.01-23.58Q64.01-21.73 64.11-19.92 64.21-18.12 64.21-16.26L64.21-16.26 64.21-9.77Q64.21-7.67 64.33-5.62 64.45-3.56 64.45-1.51L64.45-1.51Q64.45-1.32 64.21-0.98L64.21-0.98Q64.11-0.59 63.91-0.34L63.91-0.34Q63.47-0.29 63.08-0.49L63.08-0.49Q62.89-0.49 62.81-0.37 62.74-0.24 62.6-0.15L62.6-0.15Q62.2-0.15 61.96 0.05 61.72 0.24 61.37 0.24L61.37 0.24Q61.08 0.24 60.81 0.17 60.54 0.1 60.2 0.1L60.2 0.1Q60.1 0.1 59.91 0.27 59.71 0.44 59.62 0.49L59.62 0.49Q59.37 0.49 59.18 0.56 58.98 0.63 58.74 0.63L58.74 0.63Q58.49 0.44 58.52 0.05 58.54-0.34 58.2-0.44L58.2-0.44Q58.2-0.68 58.23-0.98 58.25-1.27 58.25-1.56L58.25-1.56Q58.25-3.47 58.15-5.4 58.05-7.32 58.01-9.23L58.01-9.23Q57.96-10.06 57.98-10.86 58.01-11.67 58.01-12.5L58.01-12.5Q58.01-12.94 58.01-13.38 58.01-13.82 57.91-14.21L57.91-14.21Q57.61-14.26 57.39-14.14 57.18-14.01 56.93-14.01L56.93-14.01Q55.91-13.67 55.56-13.33L55.56-13.33Q55.27-13.33 55.08-13.23 54.88-13.13 54.64-13.04L54.64-13.04Q54.25-12.94 53.88-12.87 53.51-12.79 53.12-12.65L53.12-12.65Q52.88-12.55 52.63-12.45 52.39-12.35 52.15-12.26L52.15-12.26Q51.61-12.06 51.07-11.89 50.53-11.72 50-11.52L50-11.52Q49.46-11.43 49.07-11.23 48.68-11.04 48.29-10.84L48.29-10.84Q47.95-8.54 47.92-6.47 47.9-4.39 48.04-2.34L48.04-2.34Q47.95-2.05 47.95-1.68 47.95-1.32 47.8-1.07L47.8-1.07Q47.26-0.93 47.09-1.05 46.92-1.17 46.73-1.27L46.73-1.27Q46.53-1.22 46.41-1.07 46.29-0.93 46.19-0.83L46.19-0.83Q45.8-0.83 45.58-0.66 45.36-0.49 45.16-0.39L45.16-0.39Q45.02-0.34 44.87-0.39 44.72-0.44 44.53-0.34L44.53-0.34Q44.04-0.34 44.06-0.46 44.09-0.59 43.94-0.59L43.94-0.59Q43.75-0.59 43.67-0.42 43.6-0.24 43.41-0.15L43.41-0.15Q43.21-0.05 42.97-0.02 42.72 0 42.48 0.1L42.48 0.1Q42.23-0.15 42.23-0.44 42.23-0.73 41.99-0.98L41.99-0.98Q41.89-1.66 41.87-2.32 41.84-2.98 41.7-3.66L41.7-3.66Q41.79-5.03 41.77-5.86 41.75-6.69 41.75-7.57L41.75-7.57Q41.75-8.35 41.7-9.13 41.65-9.91 41.6-10.69L41.6-10.69Q41.5-12.11 41.43-13.57 41.35-15.04 41.35-16.5L41.35-16.5Q41.35-17.72 41.48-18.9 41.6-20.07 41.6-21.29L41.6-21.29Q41.6-22.12 41.62-22.92 41.65-23.73 41.65-24.56L41.65-24.56Q41.65-25.24 41.62-25.9 41.6-26.56 41.6-27.2L41.6-27.2Q41.6-27.93 41.7-28.64 41.79-29.35 41.79-30.03L41.79-30.03Q41.79-30.86 41.7-31.67 41.6-32.47 41.6-33.3L41.6-33.3Q41.6-33.54 41.65-33.76 41.7-33.98 41.7-34.23L41.7-34.23Q41.65-34.77 41.75-34.89 41.84-35.01 41.94-35.21L41.94-35.21Q42.19-35.25 42.48-35.35 42.77-35.45 43.02-35.35L43.02-35.35Q43.31-35.64 43.82-35.64 44.33-35.64 44.58-35.99L44.58-35.99Q44.92-35.94 45.04-35.96 45.16-35.99 45.26-35.99L45.26-35.99Q45.7-35.89 45.73-36.01 45.75-36.13 45.9-36.13L45.9-36.13Q46.14-36.13 46.65-36.11 47.17-36.08 47.36-35.89L47.36-35.89Q47.85-33.3 47.9-30.62 47.95-27.93 47.95-25.29L47.95-25.29Q47.95-24.61 48-23.9 48.04-23.19 47.95-22.51L47.95-22.51Q47.95-22.22 47.9-21.95 47.85-21.68 47.85-21.39L47.85-21.39Q47.85-20.56 47.75-19.65 47.65-18.75 47.65-17.92L47.65-17.92Q48.24-17.58 48.65-17.7 49.07-17.82 49.46-17.97L49.46-17.97Q49.95-18.12 50.36-18.29 50.78-18.46 51.22-18.6L51.22-18.6Q51.61-18.8 52.07-18.92 52.54-19.04 52.93-19.14L52.93-19.14Q54.2-19.58 55.42-20.21 56.64-20.85 57.91-21.24L57.91-21.24Q57.81-23.93 57.81-26.59 57.81-29.25 57.81-31.88L57.81-31.88Q57.81-32.62 57.81-33.4 57.81-34.18 57.91-34.91L57.91-34.91Q57.96-35.11 58.03-35.23 58.1-35.35 58.1-35.6L58.1-35.6Q58.25-35.84 58.44-35.94 58.64-36.04 58.74-36.23L58.74-36.23Q58.84-36.13 58.96-36.06 59.08-35.99 59.23-35.94L59.23-35.94Q59.62-36.04 59.69-36.08 59.76-36.13 59.86-36.18L59.86-36.18Q60.1-36.28 60.5-36.28 60.89-36.28 61.13-36.28L61.13-36.28 61.72-36.28Z" opacity="1" transform="matrix(1,0,0,1,0,0)" fill="#ff0000" class="undefined-text-0" data-fill-palette-color="primary" id="text-0"></path></svg></g></svg></g></svg></g></svg></g><g></g></svg></g></svg></g></svg></g></svg></g><defs></defs></svg><rect width="320" height="360" fill="none" stroke="none" visibility="hidden"></rect></g></svg></g></svg>